<?xml version="1.0" encoding="UTF-8" standalone="no"?>
<!DOCTYPE svg PUBLIC "-//W3C//DTD SVG 1.1//EN" "http://www.w3.org/Graphics/SVG/1.1/DTD/svg11.dtd">
<svg width="100%" height="100%" viewBox="0 0 1024 1024" version="1.1" xmlns="http://www.w3.org/2000/svg" xmlns:xlink="http://www.w3.org/1999/xlink" xml:space="preserve" xmlns:serif="http://www.serif.com/" style="fill-rule:evenodd;clip-rule:evenodd;stroke-linejoin:round;stroke-miterlimit:2;">
    <g transform="matrix(1.04718,0,0,1.08362,-37.1859,-40.0137)">
        <path d="M1013.38,238.403C1013.38,127.205 919.956,36.926 804.888,36.926L243.999,36.926C128.931,36.926 35.511,127.205 35.511,238.403L35.511,780.43C35.511,891.628 128.931,981.907 243.999,981.907L804.888,981.907C919.956,981.907 1013.38,891.628 1013.38,780.43L1013.38,238.403Z" style="fill:rgb(192,8,0);"/>
    </g>
    <g>
      <path d="M451.934,719.086C451.934,719.086 519.828,706.801 539.208,694.457C552.565,685.949 555.973,667.831 600.203,656.528C629.547,649.029 733.822,652.217 764.023,646.31C789.297,641.366 829.386,622.952 829.386,622.952L830.175,700.176L797.749,714.644L788.238,843.805L772.415,844.525L763.517,725.725C763.517,725.725 711.174,731.035 697.361,730.214C683.549,729.392 638.876,730.817 638.876,730.817C638.876,730.817 617.55,751.57 595.68,762.505C562.602,779.043 472.416,796.51 472.416,796.51L461.453,957.583L444.409,957.729L432.37,804.552L384.248,815.213L384.053,778.118C384.053,778.118 430.963,771.27 441.675,759.196C457.599,741.247 451.934,719.086 451.934,719.086ZM154.551,712.501L375.44,778.707L374.288,814.496L282.414,781.506L272.761,880.553L256.524,880.156L244.512,765.756L154.262,734.778L154.551,712.501ZM227.158,672.461L440.347,718.596C440.347,718.596 440.962,732.274 438.114,743.951C434.5,758.774 424.766,763.448 424.766,763.448L200.441,702.828C200.441,702.828 210.911,696.778 218.264,689.354C224.962,682.591 227.158,672.461 227.158,672.461ZM312.328,667.345C291.986,669.918 279.102,671.563 279.102,671.563L421.793,468.84L616.835,462.689C616.835,462.689 579.419,491.481 589.008,509.731C599.194,529.117 620.729,530.016 678.465,530.458C736.201,530.899 787.734,528.514 788.124,553.078C788.453,573.814 753.993,590.748 710.782,605.893C668.128,620.844 601.885,632.262 515.205,642.361C508.855,643.101 502.111,643.896 495.078,644.734L529.21,691.369L516.196,697.169L479.452,646.606C484.791,645.962 490.011,645.337 495.078,644.734L409.815,528.237L397.886,534.364L479.452,646.606C440.538,651.292 395.339,656.908 357.741,661.625L394.808,668.598L378.953,698.965L303.858,683.186L312.328,667.345ZM469.238,164.974L576.492,165.148C576.492,165.148 595.743,145.591 628.38,142.991C670.062,139.671 715.015,182.787 736.578,227.699C765.458,287.853 778.26,381.295 758.714,410.855C742.665,435.128 722.552,445.466 683.824,429.26C645.095,413.054 596.181,352.823 596.181,352.823L449.426,351.795C449.426,351.795 404.33,406.347 371.045,423.901C348.235,435.93 326.691,446.3 302.146,430.177C269.329,408.62 271.646,333.325 286.261,279.105C300.877,224.886 344.404,155.455 393.659,145.824C435.002,137.74 469.238,164.974 469.238,164.974ZM369.809,309.421C379.997,309.421 388.268,317.692 388.268,327.88C388.268,338.067 379.997,346.338 369.809,346.338C359.622,346.338 351.351,338.067 351.351,327.88C351.351,317.692 359.622,309.421 369.809,309.421ZM641.984,238.023C642.06,232.333 642.004,227.309 642.112,221.658C642.221,216.007 646.815,210.182 655.677,210.171C664.539,210.161 669.808,216.207 669.655,223.168C669.502,230.13 669.864,254.189 669.916,256.72C669.969,259.251 670.508,261.778 675.582,261.991C680.656,262.205 700.321,262.237 708.312,262.364C716.303,262.491 722.011,269.836 722.159,276.545C722.325,283.995 715.72,290.262 709.215,290.63C701.457,291.068 680.895,290.17 675.001,290.316C669.106,290.462 669.784,293.399 669.669,296.54C669.554,299.68 669.68,326 669.63,331.014C669.573,336.593 663.028,342.744 655.536,342.628C647.406,342.503 641.796,335.821 641.712,329.215C641.624,322.283 641.756,302.715 641.756,296.893C641.756,291.072 640.656,290.975 636.808,290.678C632.959,290.382 607.675,290.44 601.163,290.45C594.651,290.461 589.847,283.578 589.845,275.459C589.843,267.341 596.847,261.878 602.173,261.996C607.5,262.114 627.762,262.191 634.165,262.155C638.616,262.131 641.857,259.679 641.745,256.334C641.645,253.343 641.909,243.714 641.984,238.023ZM324.607,264.854C334.795,264.854 343.066,273.125 343.066,283.313C343.066,293.5 334.795,301.771 324.607,301.771C314.419,301.771 306.148,293.5 306.148,283.313C306.148,273.125 314.419,264.854 324.607,264.854ZM413.658,264.473C423.845,264.473 432.116,272.744 432.116,282.932C432.116,293.119 423.845,301.39 413.658,301.39C403.47,301.39 395.199,293.119 395.199,282.932C395.199,272.744 403.47,264.473 413.658,264.473ZM369.475,219.915C379.663,219.915 387.934,228.186 387.934,238.373C387.934,248.561 379.663,256.832 369.475,256.832C359.288,256.832 351.017,248.561 351.017,238.373C351.017,228.186 359.288,219.915 369.475,219.915Z" style="fill:white;"/>
    </g>
</svg>
